<svg width="40" height="40" viewBox="0 0 40 40" fill="none" xmlns="http://www.w3.org/2000/svg">
<path fill-rule="evenodd" clip-rule="evenodd" d="M20 40C31.0457 40 40 31.0457 40 20C40 8.9543 31.0457 0 20 0C8.9543 0 0 8.9543 0 20C0 31.0457 8.9543 40 20 40ZM14.2408 32.6118C13.4798 32.6118 12.7132 32.3721 12.0529 31.8756C10.3929 30.6274 10.0199 28.2121 11.2192 26.4887C11.2201 26.4867 11.2215 26.4848 11.2229 26.4829C11.2243 26.481 11.2257 26.479 11.2267 26.4771L13.795 22.8097L9.63567 21.407L9.63254 21.4059L9.62569 21.4031C9.62414 21.4024 9.62253 21.4018 9.62073 21.4012C7.67535 20.7365 6.60844 18.559 7.24261 16.5379C7.87678 14.5168 9.97698 13.4038 11.9298 14.053C11.9319 14.0541 11.9346 14.0552 11.9372 14.0559C11.9384 14.0563 11.9396 14.0566 11.9408 14.0567C11.9415 14.0568 11.9422 14.0569 11.9429 14.0569L16.1042 15.4539L16.1079 10.9229C16.1098 8.79168 17.7828 7.05852 19.8382 7.05852C21.8937 7.05852 23.5667 8.79168 23.5687 10.921L23.5706 15.4558L27.7317 14.0589C29.6883 13.4019 31.7961 14.5148 32.432 16.5397C33.068 18.5648 31.9937 20.75 30.039 21.4089L25.8777 22.8116L28.4461 26.479C28.4488 26.4819 28.4506 26.4846 28.4528 26.4882L28.4554 26.4925C29.6529 28.216 29.2817 30.6294 27.6217 31.8775C25.9636 33.1257 23.634 32.749 22.4216 31.0389L22.418 31.0339C22.4173 31.0329 22.4164 31.0318 22.4156 31.0308C22.4139 31.0285 22.4121 31.0262 22.4104 31.0235L19.8364 27.3581L17.2624 31.0235L17.2573 31.0309L17.2548 31.0346L17.2497 31.0418C17.2478 31.0442 17.2458 31.0464 17.2437 31.0486C16.5163 32.0689 15.3861 32.6118 14.2408 32.6118Z" fill="#FD5A1F"/>
</svg>
