<svg width="40" height="369" viewBox="0 0 40 369" fill="none" xmlns="http://www.w3.org/2000/svg">
<line x1="21" y1="209.037" x2="21" y2="319.332" stroke="white" stroke-width="2"/>
<line x1="21" y1="46" x2="21" y2="156.295" stroke="white" stroke-width="2"/>
<path fill-rule="evenodd" clip-rule="evenodd" d="M20 40C31.0457 40 40 31.0457 40 20C40 8.9543 31.0457 0 20 0C8.9543 0 0 8.9543 0 20C0 31.0457 8.9543 40 20 40ZM14.2408 32.6118C13.4798 32.6118 12.7132 32.3721 12.0529 31.8756C10.3929 30.6274 10.0199 28.2121 11.2192 26.4887C11.2201 26.4867 11.2215 26.4848 11.2229 26.4829C11.2243 26.481 11.2257 26.479 11.2267 26.4771L13.795 22.8097L9.63567 21.407L9.63254 21.4059L9.62569 21.4031C9.62414 21.4024 9.62253 21.4018 9.62073 21.4012C7.67535 20.7365 6.60844 18.559 7.24261 16.5379C7.87678 14.5168 9.97698 13.4038 11.9298 14.053C11.9319 14.0541 11.9346 14.0552 11.9372 14.0559C11.9384 14.0563 11.9396 14.0566 11.9408 14.0567C11.9415 14.0568 11.9422 14.0569 11.9429 14.0569L16.1042 15.4539L16.1079 10.9229C16.1098 8.79168 17.7828 7.05852 19.8382 7.05852C21.8937 7.05852 23.5667 8.79168 23.5687 10.921L23.5706 15.4558L27.7317 14.0589C29.6883 13.4019 31.7961 14.5148 32.432 16.5397C33.068 18.5648 31.9937 20.75 30.039 21.4089L25.8777 22.8116L28.4461 26.479C28.4488 26.4819 28.4506 26.4846 28.4528 26.4882L28.4554 26.4925C29.6529 28.216 29.2817 30.6294 27.6217 31.8775C25.9636 33.1257 23.634 32.749 22.4216 31.0389L22.418 31.0339C22.4173 31.0329 22.4164 31.0318 22.4156 31.0308C22.4139 31.0285 22.4121 31.0262 22.4104 31.0235L19.8364 27.3581L17.2624 31.0235L17.2573 31.0309L17.2548 31.0346L17.2497 31.0418C17.2478 31.0442 17.2458 31.0464 17.2437 31.0486C16.5163 32.0689 15.3861 32.6118 14.2408 32.6118Z" fill="#FD5A1F"/>
<path fill-rule="evenodd" clip-rule="evenodd" d="M20 203C31.0457 203 40 194.046 40 183C40 171.954 31.0457 163 20 163C8.9543 163 0 171.954 0 183C0 194.046 8.9543 203 20 203ZM14.2408 195.612C13.4798 195.612 12.7132 195.372 12.0529 194.876C10.3929 193.627 10.0199 191.212 11.2192 189.489C11.2201 189.487 11.2215 189.485 11.2229 189.483C11.2243 189.481 11.2257 189.479 11.2267 189.477L13.795 185.81L9.63567 184.407L9.63254 184.406L9.62569 184.403C9.62414 184.402 9.62253 184.402 9.62073 184.401C7.67535 183.737 6.60844 181.559 7.24261 179.538C7.87678 177.517 9.97698 176.404 11.9298 177.053C11.9319 177.054 11.9346 177.055 11.9372 177.056C11.9384 177.056 11.9396 177.057 11.9408 177.057C11.9415 177.057 11.9422 177.057 11.9429 177.057L16.1042 178.454L16.1079 173.923C16.1098 171.792 17.7828 170.059 19.8382 170.059C21.8937 170.059 23.5667 171.792 23.5687 173.921L23.5706 178.456L27.7317 177.059C29.6883 176.402 31.7961 177.515 32.432 179.54C33.068 181.565 31.9937 183.75 30.039 184.409L25.8777 185.812L28.4461 189.479C28.4488 189.482 28.4506 189.485 28.4528 189.488L28.4554 189.493C29.6529 191.216 29.2817 193.629 27.6217 194.877C25.9636 196.126 23.634 195.749 22.4216 194.039L22.418 194.034C22.4173 194.033 22.4164 194.032 22.4156 194.031C22.4139 194.029 22.4121 194.026 22.4104 194.023L19.8364 190.358L17.2624 194.023L17.2573 194.031L17.2548 194.035L17.2497 194.042C17.2478 194.044 17.2458 194.046 17.2437 194.049C16.5163 195.069 15.3861 195.612 14.2408 195.612Z" fill="#FD5A1F"/>
<path fill-rule="evenodd" clip-rule="evenodd" d="M20 369C31.0457 369 40 360.046 40 349C40 337.954 31.0457 329 20 329C8.9543 329 0 337.954 0 349C0 360.046 8.9543 369 20 369ZM14.2408 361.612C13.4798 361.612 12.7132 361.372 12.0529 360.876C10.3929 359.627 10.0199 357.212 11.2192 355.489C11.2201 355.487 11.2215 355.485 11.2229 355.483C11.2243 355.481 11.2257 355.479 11.2267 355.477L13.795 351.81L9.63567 350.407L9.63254 350.406L9.62569 350.403C9.62414 350.402 9.62253 350.402 9.62073 350.401C7.67535 349.737 6.60844 347.559 7.24261 345.538C7.87678 343.517 9.97698 342.404 11.9298 343.053C11.9319 343.054 11.9346 343.055 11.9372 343.056C11.9384 343.056 11.9396 343.057 11.9408 343.057C11.9415 343.057 11.9422 343.057 11.9429 343.057L16.1042 344.454L16.1079 339.923C16.1098 337.792 17.7828 336.059 19.8382 336.059C21.8937 336.059 23.5667 337.792 23.5687 339.921L23.5706 344.456L27.7317 343.059C29.6883 342.402 31.7961 343.515 32.432 345.54C33.068 347.565 31.9937 349.75 30.039 350.409L25.8777 351.812L28.4461 355.479C28.4488 355.482 28.4506 355.485 28.4528 355.488L28.4554 355.493C29.6529 357.216 29.2817 359.629 27.6217 360.877C25.9636 362.126 23.634 361.749 22.4216 360.039L22.418 360.034C22.4173 360.033 22.4164 360.032 22.4156 360.031C22.4139 360.029 22.4121 360.026 22.4104 360.023L19.8364 356.358L17.2624 360.023L17.2573 360.031L17.2548 360.035L17.2497 360.042C17.2478 360.044 17.2458 360.046 17.2437 360.049C16.5163 361.069 15.3861 361.612 14.2408 361.612Z" fill="#FD5A1F"/>
</svg>
